General
Complete name                    : The Pelican Brief.mkv
Format                           : Matroska
File size                        : 2.04 GiB
Duration                         : 2h 15mn
Overall bit rate                 : 2 155 Kbps


Video
ID                               : 1
Format                           : AVC
Duration                         : 2h 15mn
Bit rate                         : 1 409 Kbps
Width                            : 714 pixels
Height                           : 432 pixels
Display aspect ratio             : 2.35:1
Frame rate                       : 25.000 fps
Resolution                       : 8 bits
Colorimetry                      : 4:2:0
Scan type                        : Progressive
Bits/(Pixel*Frame)               : 0.183
Stream size                      : 1.33 GiB (65%)
Writing library                  : x264 core 79

Audio #1
ID                               : 2
Format                           : AC-3
Format/Info                      : Audio Coding 3
Codec ID                         : A_AC3
Duration                         : 2h 15mn
Bit rate mode                    : Constant
Bit rate                         : 384 Kbps
Channel(s)                       : 6 channels
Channel positions                : Front: L C R, Surround: L R, LFE
Sampling rate                    : 48.0 KHz
Stream size                      : 371 MiB (18%)
Language                         : English

Audio #2
ID                               : 3
Format                           : MPEG Audio
Format version                   : Version 1
Format profile                   : Layer 3
Mode                             : Joint stereo / MS Stereo
Codec ID                         : A_MPEG/L3
Codec ID/Hint                    : MP3
Duration                         : 2h 15mn
Bit rate mode                    : Constant
Bit rate                         : 160 Kbps
Channel(s)                       : 2 channels
Sampling rate                    : 48.0 KHz
Stream size                      : 155 MiB (7%)
Writing library                  : LAME3.98
Language                         : German

Audio #3
ID                               : 4
Format                           : MPEG Audio
Format version                   : Version 1
Format profile                   : Layer 3
Mode                             : Joint stereo / MS Stereo
Codec ID                         : A_MPEG/L3
Codec ID/Hint                    : MP3
Duration                         : 2h 15mn
Bit rate mode                    : Constant
Bit rate                         : 160 Kbps
Channel(s)                       : 2 channels
Sampling rate                    : 48.0 KHz
Stream size                      : 155 MiB (7%)
Writing library                  : LAME3.98
Language                         : Spanish

Text #1
Language                         : English

Text #2
Language                         : German

Text #3
Language                         : Spanish

Text #4
Language                         : Danish

Text #5
Language                         : Dutch

Text #6
Language                         : Finnish

Text #7
Language                         : French

Text #8
Language                         : ???xxxx????

Text #9
Language                         : Italian

Text #10
Language                         : Norwegian

Text #11
Language                         : Portuguese

Text #12
Language                         : Swedish

Text #13
Language                         : English

Text #14
Language                         : German





